<mxfile host="app.diagrams.net" agent="Mozilla/5.0 (Macintosh; Intel Mac OS X 10_15_7) AppleWebKit/537.36 (KHTML, like Gecko) Chrome/126.0.0.0 Safari/537.36" version="24.8.4">
  <diagram name="PÃ¡gina-1" id="-LYbZUkTX21d1_K8IsPZ">
    <mxGraphModel dx="1194" dy="1965" grid="1" gridSize="10" guides="1" tooltips="1" connect="1" arrows="1" fold="1" page="1" pageScale="1" pageWidth="827" pageHeight="1169" math="0" shadow="0">
      <root>
        <mxCell id="0" />
        <mxCell id="1" parent="0" />
        <mxCell id="categories" value="Categories&#xa;------------------------&#xa;id (PK)&#xa;name&#xa;description&#xa;created_at&#xa;updated_at" style="shape=rectangle;whiteSpace=wrap;html=1;fillColor=#ffe6cc;strokeColor=#d79b00;" vertex="1" parent="1">
          <mxGeometry x="100" y="-10" width="200" height="140" as="geometry" />
        </mxCell>
        <mxCell id="products" value="Products&#xa;------------------------&#xa;id (PK)&#xa;name&#xa;description&#xa;price&#xa;stock&#xa;image_url&#xa;category_id (FK)&#xa;created_at&#xa;updated_at" style="shape=rectangle;whiteSpace=wrap;html=1;fillColor=#fff2cc;strokeColor=#d6b656;" vertex="1" parent="1">
          <mxGeometry x="530" y="-30" width="250" height="180" as="geometry" />
        </mxCell>
        <mxCell id="users" value="Users&#xa;------------------------&#xa;id (PK)&#xa;username&#xa;password&#xa;email&#xa;created_at&#xa;updated_at" style="shape=rectangle;whiteSpace=wrap;html=1;fillColor=#e1d5e7;strokeColor=#9673a6;" vertex="1" parent="1">
          <mxGeometry x="80" y="460" width="200" height="140" as="geometry" />
        </mxCell>
        <mxCell id="cart" value="Cart&#xa;------------------------&#xa;id (PK)&#xa;user_id (FK)&#xa;product_id (FK)&#xa;quantity&#xa;created_at&#xa;updated_at" style="shape=rectangle;whiteSpace=wrap;html=1;fillColor=#dae8fc;strokeColor=#6c8ebf;" vertex="1" parent="1">
          <mxGeometry x="55" y="170" width="250" height="140" as="geometry" />
        </mxCell>
        <mxCell id="invoices" value="Invoices&#xa;------------------------&#xa;id (PK)&#xa;user_id (FK)&#xa;total&#xa;created_at&#xa;updated_at" style="shape=rectangle;whiteSpace=wrap;html=1;fillColor=#d5e8d4;strokeColor=#82b366;" vertex="1" parent="1">
          <mxGeometry x="390" y="570" width="200" height="140" as="geometry" />
        </mxCell>
        <mxCell id="invoice_details" value="Invoice Details&#xa;------------------------&#xa;id (PK)&#xa;invoice_id (FK)&#xa;product_id (FK)&#xa;quantity&#xa;subtotal&#xa;created_at&#xa;updated_at" style="shape=rectangle;whiteSpace=wrap;html=1;fillColor=#f8cecc;strokeColor=#b85450;" vertex="1" parent="1">
          <mxGeometry x="750" y="410" width="250" height="160" as="geometry" />
        </mxCell>
        <mxCell id="edge1" value="&lt;div style=&quot;display: inline; margin: 5px auto; padding: 5px 0px; color: rgb(37, 37, 37); font-family: Roboto, arial, sans-serif; text-align: start; text-wrap: wrap; font-size: 13px;&quot; class=&quot;gtx-body&quot;&gt;&lt;font style=&quot;font-size: 13px;&quot;&gt;Pertenece a&lt;/font&gt;&lt;/div&gt;&lt;div style=&quot;font-size: 13px;&quot;&gt;&lt;div style=&quot;display: inline; margin: 5px auto; padding: 5px 0px; color: rgb(37, 37, 37); font-family: Roboto, arial, sans-serif; text-align: start; text-wrap: wrap;&quot; class=&quot;gtx-body&quot;&gt;&lt;br&gt;&lt;/div&gt;&lt;/div&gt;" style="edgeStyle=orthogonalEdgeStyle;rounded=0;html=1;" edge="1" parent="1" source="products" target="categories">
          <mxGeometry relative="1" as="geometry" />
        </mxCell>
        <mxCell id="edge2" value="&lt;span style=&quot;color: rgb(37, 37, 37); font-family: Roboto, arial, sans-serif; font-size: 18px; text-align: start; text-wrap: wrap;&quot;&gt;Propietario&lt;/span&gt;" style="edgeStyle=orthogonalEdgeStyle;rounded=0;html=1;" edge="1" parent="1" source="cart" target="users">
          <mxGeometry relative="1" as="geometry" />
        </mxCell>
        <mxCell id="edge3" value="&lt;span style=&quot;color: rgb(37, 37, 37); font-family: Roboto, arial, sans-serif; font-size: 18px; text-align: start; text-wrap: wrap;&quot;&gt;Incluye&lt;/span&gt;" style="edgeStyle=orthogonalEdgeStyle;rounded=0;html=1;" edge="1" parent="1" source="cart" target="products">
          <mxGeometry relative="1" as="geometry" />
        </mxCell>
        <mxCell id="edge4" value="&lt;span style=&quot;color: rgb(37, 37, 37); font-family: Roboto, arial, sans-serif; font-size: 18px; text-align: start; text-wrap: wrap;&quot;&gt;Propietario&lt;/span&gt;" style="edgeStyle=orthogonalEdgeStyle;rounded=0;html=1;" edge="1" parent="1" source="invoices" target="users">
          <mxGeometry relative="1" as="geometry" />
        </mxCell>
        <mxCell id="edge5" value="&lt;span style=&quot;color: rgb(37, 37, 37); font-family: Roboto, arial, sans-serif; font-size: 18px; text-align: start; text-wrap: wrap;&quot;&gt;Contiene&lt;/span&gt;" style="edgeStyle=orthogonalEdgeStyle;rounded=0;html=1;" edge="1" parent="1" source="invoice_details" target="invoices">
          <mxGeometry relative="1" as="geometry" />
        </mxCell>
        <mxCell id="edge6" value="&lt;span style=&quot;color: rgb(37, 37, 37); font-family: Roboto, arial, sans-serif; font-size: 18px; text-align: start; text-wrap: wrap;&quot;&gt;Referencias&lt;/span&gt;" style="edgeStyle=orthogonalEdgeStyle;rounded=0;html=1;" edge="1" parent="1" source="invoice_details" target="products">
          <mxGeometry relative="1" as="geometry" />
        </mxCell>
      </root>
    </mxGraphModel>
  </diagram>
</mxfile>
